<svg width="106" height="78" viewBox="0 0 106 78" fill="none" xmlns="http://www.w3.org/2000/svg">
<path d="M101.901 68.1785C101.746 68.0005 101.535 67.8546 101.288 67.7537C101.041 67.6527 100.765 67.6 100.484 67.6H98.9924C99.05 65.6673 98.2345 63.7784 96.683 62.2505C95.8881 61.5416 94.9 60.9737 93.7877 60.5865C94.4578 60.0088 94.9485 59.3232 95.2235 58.5806C95.4984 57.8381 95.5504 57.0578 95.3756 56.2979C95.2008 55.5379 94.8037 54.8178 94.2138 54.1912C93.624 53.5645 92.8566 53.0475 91.9688 52.6786V44.2H97.0781C97.3961 44.2013 97.7081 44.1347 97.979 44.0076C98.2499 43.8806 98.4688 43.6982 98.6109 43.4811L102.017 38.2811C102.147 38.0824 102.209 37.8615 102.195 37.6396C102.181 37.4176 102.094 37.202 101.94 37.0134C101.786 36.8247 101.572 36.6693 101.317 36.5619C101.062 36.4545 100.775 36.3988 100.484 36.4V10.4C100.484 9.02087 99.7666 7.69823 98.489 6.72304C97.2114 5.74786 95.4787 5.2 93.6719 5.2H85.1562V1.3C85.1562 0.955219 84.9768 0.624558 84.6574 0.380761C84.338 0.136964 83.9048 0 83.4531 0H22.1406C21.6889 0 21.2557 0.136964 20.9363 0.380761C20.6169 0.624558 20.4375 0.955219 20.4375 1.3V5.2H11.9219C10.1151 5.2 8.3823 5.74786 7.10471 6.72304C5.82712 7.69823 5.10938 9.02087 5.10938 10.4V36.4C5.10938 37.7791 5.82712 39.1018 7.10471 40.077C8.3823 41.0521 10.1151 41.6 11.9219 41.6H20.4375V49.4C20.4375 49.7448 20.6169 50.0754 20.9363 50.3192C21.2557 50.563 21.6889 50.7 22.1406 50.7H74.9375V54.47C74.9375 54.8148 75.1169 55.1454 75.4363 55.3892C75.7557 55.633 76.1889 55.77 76.6406 55.77H82.1502C81.8157 56.595 81.7681 57.4722 82.0121 58.3155C82.256 59.1588 82.7832 59.9392 83.5417 60.58C82.4294 60.9672 81.4413 61.5351 80.6464 62.244C79.0954 63.7744 78.2823 65.6658 78.3438 67.6H75.0397C75.0987 65.6674 74.2837 63.7783 72.732 62.2505C71.9369 61.5417 70.9488 60.9738 69.8366 60.5865C70.9207 59.6518 71.523 58.4483 71.5312 57.2C71.5312 55.8209 70.8135 54.4982 69.5359 53.523C68.2583 52.5479 66.5255 52 64.7188 52C62.912 52 61.1792 52.5479 59.9016 53.523C58.624 54.4982 57.9062 55.8209 57.9062 57.2C57.9142 58.4452 58.5133 59.6461 59.5923 60.58C58.4802 60.9673 57.4921 61.5352 56.697 62.244C55.1458 63.7742 54.3332 65.6658 54.3961 67.6H51.1976C51.2566 65.6674 50.4417 63.7783 48.8899 62.2505C48.0949 61.5417 47.1068 60.9738 45.9946 60.5865C47.0781 59.6516 47.6797 58.4482 47.6875 57.2C47.6875 55.8209 46.9698 54.4982 45.6922 53.523C44.4146 52.5479 42.6818 52 40.875 52C39.0682 52 37.3354 52.5479 36.0578 53.523C34.7802 54.4982 34.0625 55.8209 34.0625 57.2C34.0705 58.4452 34.6695 59.6461 35.7486 60.58C34.6364 60.9673 33.6483 61.5352 32.8533 62.244C31.3021 63.7742 30.4895 65.6658 30.5524 67.6H27.3539C27.4129 65.6674 26.5979 63.7783 25.0462 62.2505C24.2511 61.5417 23.263 60.9738 22.1508 60.5865C23.2343 59.6516 23.836 58.4482 23.8438 57.2C23.8437 55.8209 23.126 54.4982 21.8484 53.523C20.5708 52.5479 18.838 52 17.0312 52C15.2245 52 13.4917 52.5479 12.2141 53.523C10.9365 54.4982 10.2188 55.8209 10.2188 57.2C10.2267 58.4452 10.8257 59.6461 11.9048 60.58C10.7927 60.9673 9.80458 61.5352 9.00953 62.244C7.45834 63.7742 6.64571 65.6658 6.70861 67.6H5.10938C4.82905 67.6 4.55306 67.6527 4.30587 67.7537C4.05868 67.8546 3.84795 68.0005 3.69237 68.1785L0.286125 72.0785C0.100042 72.2923 0.000532084 72.5433 0 72.8V76.7C0 77.0448 0.179436 77.3754 0.498834 77.6192C0.818232 77.863 1.25143 78 1.70312 78H103.891C104.342 78 104.776 77.863 105.095 77.6192C105.414 77.3754 105.594 77.0448 105.594 76.7V72.8C105.593 72.5433 105.494 72.2923 105.308 72.0785L101.901 68.1785ZM96.0256 41.6H70.8807L69.1775 39H97.7287L96.0256 41.6ZM74.9375 48.1H71.5312V44.2H74.9375V48.1ZM34.0625 41.6V48.1H30.6562V41.6H34.0625ZM37.4688 41.6H40.875V48.1H37.4688V41.6ZM44.2812 41.6H47.6875V48.1H44.2812V41.6ZM51.0938 41.6H54.5V48.1H51.0938V41.6ZM57.9062 41.6H61.3125V48.1H57.9062V41.6ZM64.7188 41.6H67.0725L68.125 43.2068V48.1H64.7188V41.6ZM80.0469 27.6367C80.0469 27.1225 80.2466 26.6198 80.6209 26.1922C80.9952 25.7646 81.5272 25.4314 82.1496 25.2346C82.772 25.0378 83.4569 24.9863 84.1177 25.0867C84.7784 25.187 85.3853 25.4346 85.8617 25.7982C86.3381 26.1618 86.6625 26.6251 86.7939 27.1295C86.9254 27.6338 86.8579 28.1566 86.6001 28.6317C86.3423 29.1068 85.9057 29.5128 85.3455 29.7985C84.7854 30.0842 84.1268 30.2367 83.4531 30.2367C82.5497 30.2367 81.6833 29.9628 81.0445 29.4752C80.4057 28.9876 80.0469 28.3263 80.0469 27.6367ZM79.4576 33.9404C79.9771 33.5444 80.6042 33.2402 81.2946 33.0495C81.985 32.8588 82.7219 32.7861 83.4531 32.8367C84.1844 32.7861 84.9212 32.8588 85.6116 33.0495C86.302 33.2402 86.9292 33.5444 87.4487 33.9404C88.1541 34.6481 88.5412 35.5108 88.5523 36.4H78.354C78.3665 35.511 78.7534 34.6486 79.4576 33.9404ZM23.8438 2.6H81.75V5.2H23.8438V2.6ZM8.51562 36.4V10.4C8.51562 9.71044 8.8745 9.04912 9.51329 8.56152C10.1521 8.07393 11.0185 7.8 11.9219 7.8H93.6719C94.5753 7.8 95.4417 8.07393 96.0805 8.56152C96.7193 9.04912 97.0781 9.71044 97.0781 10.4V36.4H91.9466C91.9357 34.9014 91.2711 33.4482 90.0578 32.2699C89.5755 31.8506 89.0093 31.4921 88.3803 31.2078C89.3015 30.4714 89.9192 29.5447 90.1567 28.5427C90.3943 27.5408 90.2412 26.5076 89.7165 25.5714C89.1918 24.6353 88.3186 23.8373 87.2052 23.2765C86.0917 22.7157 84.7871 22.4167 83.4531 22.4167C82.1191 22.4167 80.8145 22.7157 79.7011 23.2765C78.5877 23.8373 77.7144 24.6353 77.1897 25.5714C76.665 26.5076 76.512 27.5408 76.7495 28.5427C76.987 29.5447 77.6047 30.4714 78.526 31.2078C77.8969 31.4921 77.3307 31.8506 76.8484 32.2699C75.6351 33.4482 74.9706 34.9014 74.9596 36.4H66.4219C66.1308 36.3988 65.8442 36.4545 65.5894 36.5619C65.3346 36.6693 65.1201 36.8247 64.9663 37.0134C64.8126 37.202 64.7248 37.4176 64.7113 37.6396C64.6977 37.8615 64.7589 38.0824 64.8891 38.2811L65.3608 39H11.9219C11.0185 39 10.1521 38.7261 9.51329 38.2385C8.8745 37.7509 8.51563 37.0896 8.51562 36.4ZM23.8438 41.6H27.25V48.1H23.8438V41.6ZM78.3438 49.4V44.2H88.5625V52.0078C87.0467 52.0313 85.5854 52.4434 84.4137 53.1778H78.3438V49.4ZM85.2635 57.2C85.2635 56.6858 85.4633 56.1831 85.8376 55.7555C86.2119 55.3279 86.7439 54.9947 87.3663 54.7979C87.9887 54.6011 88.6736 54.5496 89.3343 54.65C89.9951 54.7503 90.602 54.9979 91.0784 55.3615C91.5548 55.7251 91.8792 56.1884 92.0106 56.6928C92.142 57.1971 92.0746 57.7199 91.8168 58.195C91.559 58.6701 91.1224 59.0761 90.5622 59.3618C90.0021 59.6475 89.3435 59.8 88.6698 59.8C87.7664 59.8 86.9 59.5261 86.2612 59.0385C85.6224 58.5509 85.2635 57.8896 85.2635 57.2ZM83.2539 63.9314C83.9518 63.386 84.7997 62.9657 85.7363 62.7009C86.6729 62.4361 87.6748 62.3333 88.6698 62.4C89.6615 62.3341 90.6599 62.4363 91.5939 62.6992C92.5278 62.9622 93.374 63.3794 94.0721 63.921C95.1097 64.9805 95.6443 66.2779 95.5879 67.6H81.75C81.6956 66.2827 82.2255 64.9901 83.2539 63.9314ZM61.3125 57.2C61.3125 56.6858 61.5123 56.1831 61.8866 55.7555C62.2608 55.3279 62.7928 54.9947 63.4152 54.7979C64.0376 54.6011 64.7225 54.5496 65.3833 54.65C66.044 54.7503 66.651 54.9979 67.1273 55.3615C67.6037 55.7251 67.9281 56.1884 68.0595 56.6928C68.191 57.1971 68.1235 57.7199 67.8657 58.195C67.6079 58.6701 67.1713 59.0761 66.6112 59.3618C66.051 59.6475 65.3924 59.8 64.7188 59.8C63.8154 59.8 62.949 59.5261 62.3102 59.0385C61.6714 58.5509 61.3125 57.8896 61.3125 57.2ZM59.3028 63.9314C60.0007 63.386 60.8486 62.9657 61.7852 62.7009C62.7218 62.4361 63.7238 62.3333 64.7188 62.4C65.7107 62.3341 66.7094 62.4363 67.6436 62.6992C68.5778 62.9621 69.4244 63.3793 70.1228 63.921C71.1599 64.9806 71.6938 66.278 71.6368 67.6H57.8024C57.747 66.283 58.2757 64.9904 59.3028 63.9314ZM37.4688 57.2C37.4688 56.6858 37.6685 56.1831 38.0428 55.7555C38.4171 55.3279 38.9491 54.9947 39.5715 54.7979C40.1939 54.6011 40.8788 54.5496 41.5395 54.65C42.2003 54.7503 42.8072 54.9979 43.2836 55.3615C43.76 55.7251 44.0844 56.1884 44.2158 56.6928C44.3472 57.1971 44.2798 57.7199 44.022 58.195C43.7642 58.6701 43.3276 59.0761 42.7674 59.3618C42.2073 59.6475 41.5487 59.8 40.875 59.8C39.9716 59.8 39.1052 59.5261 38.4664 59.0385C37.8276 58.5509 37.4688 57.8896 37.4688 57.2ZM35.4591 63.9314C36.157 63.386 37.0049 62.9657 37.9415 62.7009C38.8781 62.4361 39.88 62.3333 40.875 62.4C41.8669 62.3341 42.8657 62.4363 43.7999 62.6992C44.734 62.9621 45.5806 63.3793 46.279 63.921C47.3161 64.9806 47.8501 66.278 47.7931 67.6H33.9586C33.9032 66.283 34.4319 64.9904 35.4591 63.9314ZM13.625 57.2C13.625 56.6858 13.8248 56.1831 14.1991 55.7555C14.5733 55.3279 15.1053 54.9947 15.7277 54.7979C16.3501 54.6011 17.035 54.5496 17.6958 54.65C18.3565 54.7503 18.9635 54.9979 19.4398 55.3615C19.9162 55.7251 20.2406 56.1884 20.372 56.6928C20.5035 57.1971 20.436 57.7199 20.1782 58.195C19.9204 58.6701 19.4838 59.0761 18.9237 59.3618C18.3635 59.6475 17.7049 59.8 17.0312 59.8C16.1279 59.8 15.2615 59.5261 14.6227 59.0385C13.9839 58.5509 13.625 57.8896 13.625 57.2ZM11.6153 63.9314C12.3132 63.386 13.1611 62.9657 14.0977 62.7009C15.0343 62.4361 16.0363 62.3333 17.0312 62.4C18.0232 62.3341 19.0219 62.4363 19.9561 62.6992C20.8903 62.9621 21.7369 63.3793 22.4353 63.921C23.4724 64.9806 24.0063 66.278 23.9493 67.6H10.1149C10.0595 66.283 10.5882 64.9904 11.6153 63.9314ZM102.188 75.4H3.40625V73.19L6.02055 70.2H99.5732L102.188 73.19V75.4Z" fill="black"/>
</svg>
